:SAMPLES-PER-SECOND 30
:FULLY-SPECIFIED
:DEGREES
1232
root  15.2206 39.467 9.80105 -174.3 -78.5584 170.107
RightUpLeg  -1.08051 -11.7597 -7.61916
RightLeg  13.8725 4.75434 1.92188
RightFoot  -7.94441 -0.155453 3.41699
RightToes  7.56698e-010 0 -3.6325e-017
Spine  12.9661 -3.89314 3.65306
Spine1  1.88646 -3.67973 3.022
HEad  -21.441 7.39266 -8.67429
LeftShoulder1  0.211408 2.86085 -26.6735
LeftArm  -2.42043 9.1615 -44.0327
LeftForeArm  20.8037 -26.2416 -4.5226
LeftHand  -0.0639532 6.6068 -2.32168
RightShoulder  -0.274739 -4.36164 24.7759
RightArm  7.92497 -10.7552 35.238
RightForeArm  1.59325 7.49893 4.51859
RightHand  -0.28985 2.12185 -4.66467
LeftUpLeg  3.07934 4.82995 10.0678
LeftLeg  28.2372 1.60061 1.2692
LeftFoot  -6.54083 0.320755 -6.70774
LeftToes  -2.88401e-009 5.30678e-011 -1.08654e-010
1233
root  15.6903 39.4511 10.2503 -173.411 -79.3281 169.382
RightUpLeg  -2.05365 -11.7417 -7.92937
RightLeg  13.8001 4.12779 1.59373
RightFoot  -7.1141 -0.191213 3.86749
RightToes  7.56698e-010 0 -3.6325e-017
Spine  12.6998 -3.91932 3.05304
Spine1  1.81903 -3.83364 3.39572
HEad  -21.6541 7.83592 -8.21875
LeftShoulder1  0.0653186 3.30456 -26.6268
LeftArm  -0.47254 7.87487 -44.7119
LeftForeArm  22.3928 -25.831 -4.34765
LeftHand  -0.0794212 6.73904 -3.31896
RightShoulder  -0.266999 -4.33581 24.8121
RightArm  6.74456 -11.2957 35.8084
RightForeArm  0.862804 9.41908 4.16491
RightHand  -0.304466 2.14553 -4.90456
LeftUpLeg  4.59926 4.57012 11.4142
LeftLeg  27.1825 0.915113 0.844913
LeftFoot  -5.81101 0.362807 -6.78773
LeftToes  -2.88401e-009 5.30678e-011 -1.08654e-010
1234
root  16.2051 39.391 10.7601 -172.775 -80.9074 168.998
RightUpLeg  -3.14374 -12.0929 -8.29067
RightLeg  14.0454 3.01936 1.44806
RightFoot  -6.38695 -0.235677 4.44014
RightToes  7.56698e-010 0 -3.6325e-017
Spine  12.503 -4.05618 3.00829
Spine1  1.78017 -3.97069 3.39743
HEad  -21.4488 3.38438 -8.13735
LeftShoulder1  0.110984 3.16187 -26.2179
LeftArm  -0.717803 7.56766 -45.8193
LeftForeArm  25.3821 -26.582 -4.35296
LeftHand  -0.0798732 6.52607 -4.02603
RightShoulder  -0.276339 -4.35824 25.082
RightArm  6.19043 -11.5608 36.6549
RightForeArm  0.0856603 10.7505 4.0027
RightHand  -0.315534 3.36404 -4.42076
LeftUpLeg  5.30125 3.96115 12.9213
LeftLeg  25.8222 0.33607 0.509483
LeftFoot  -4.71733 0.420141 -6.76576
LeftToes  -2.88401e-009 5.30678e-011 -1.08654e-010
1235
root  16.7297 39.3299 11.3229 -171.273 -82.0642 167.68
RightUpLeg  -4.33205 -12.6551 -8.93802
RightLeg  14.4204 2.49686 1.34677
RightFoot  -5.56568 -0.289337 4.98233
RightToes  7.56698e-010 0 -3.6325e-017
Spine  12.4692 -4.0447 2.72805
Spine1  1.86505 -3.96536 2.99104
HEad  -21.2679 0.018255 -7.71041
LeftShoulder1  0.177583 2.9598 -26.4505
LeftArm  -0.880819 7.90443 -45.6659
LeftForeArm  25.9219 -28.4552 -4.7394
LeftHand  -0.0730042 6.22896 -4.58391
RightShoulder  -0.295053 -4.41584 25.144
RightArm  6.64044 -10.7708 37.9873
RightForeArm  -0.149676 11.6996 4.21359
RightHand  -0.3133 2.96996 -4.57945
LeftUpLeg  6.01545 3.83316 14.0514
LeftLeg  23.6488 0.301532 0.46963
LeftFoot  -3.17538 0.503013 -6.77962
LeftToes  -2.88401e-009 5.30678e-011 -1.08654e-010
1236
root  17.282 39.2313 11.9631 -170.232 -83.0692 166.84
RightUpLeg  -5.73374 -13.0734 -9.51907
RightLeg  14.9858 2.08639 1.10497
RightFoot  -4.63732 -0.359809 5.59313
RightToes  7.56698e-010 0 -3.6325e-017
Spine  12.8168 -4.05324 2.37869
Spine1  1.5496 -4.00872 2.72605
HEad  -22.0231 1.37812 -6.70897
LeftShoulder1  0.200201 2.89051 -26.4406
LeftArm  -1.68447 8.92902 -45.8789
LeftForeArm  25.7646 -30.0713 -5.11814
LeftHand  -0.0595367 6.07301 -3.77012
RightShoulder  -0.244533 -4.2675 24.6601
RightArm  6.88302 -9.60543 39.9362
RightForeArm  1.66698 12.535 4.268
RightHand  -0.304862 3.30228 -4.31253
LeftUpLeg  6.43846 3.44914 14.8409
LeftLeg  21.3427 1.1382 0.812655
LeftFoot  -1.76003 0.58458 -6.82847
LeftToes  -2.88401e-009 5.30678e-011 -1.08654e-010
1237
root  17.8623 39.0842 12.7088 -168.917 -84.0339 165.877
RightUpLeg  -7.38899 -13.4793 -10.2026
RightLeg  15.5844 1.66183 0.798808
RightFoot  -3.67851 -0.45749 6.45412
RightToes  7.56698e-010 0 -3.6325e-017
Spine  13.0071 -3.98249 2.36868
Spine1  1.38589 -3.92254 2.34559
HEad  -22.1223 3.27523 -5.88276
LeftShoulder1  0.137972 3.08148 -26.484
LeftArm  -1.53396 9.25081 -46.1487
LeftForeArm  25.029 -30.7174 -5.31151
LeftHand  -0.0474695 5.80576 -3.24148
RightShoulder  -0.234967 -4.24017 24.4905
RightArm  7.81027 -8.17671 41.1829
RightForeArm  2.499 14.3363 4.36844
RightHand  -0.318141 3.05238 -4.60438
LeftUpLeg  6.38074 2.47691 14.9453
LeftLeg  19.0334 2.01788 1.0993
LeftFoot  -1.20453 0.721251 -8.00993
LeftToes  -2.88401e-009 5.30678e-011 -1.08654e-010
1238
root  18.4491 38.8913 13.5395 -170.48 -84.8937 167.762
RightUpLeg  -8.92824 -14.2404 -10.8934
RightLeg  16.0513 1.68126 0.811227
RightFoot  -2.5719 -0.566699 7.15198
RightToes  7.56698e-010 0 -3.6325e-017
Spine  13.0729 -3.65665 2.83952
Spine1  1.44888 -3.50962 2.02243
HEad  -22.0363 2.66948 -5.61921
LeftShoulder1  0.120663 3.13607 -26.6555
LeftArm  -1.17433 9.09513 -46.4823
LeftForeArm  24.2856 -30.4796 -5.29706
LeftHand  -0.0309926 5.36763 -2.48732
RightShoulder  -0.191002 -4.10089 24.3344
RightArm  8.55217 -7.38931 41.7824
RightForeArm  2.40551 17.1078 4.31384
RightHand  -0.314984 3.08207 -4.54224
LeftUpLeg  6.33892 1.75204 14.8636
LeftLeg  16.9471 1.45393 0.831261
LeftFoot  -3.61489 0.829739 -12.4827
LeftToes  -2.88401e-009 5.30678e-011 -1.08654e-010
1239
root  19.0537 38.6777 14.4615 -175.043 -85.7962 172.339
RightUpLeg  -9.77569 -14.7542 -11.6506
RightLeg  15.8004 1.48634 0.748234
RightFoot  -1.23044 -0.74763 8.33045
RightToes  7.56698e-010 0 -3.6325e-017
Spine  13.3823 -3.54149 3.84077
Spine1  1.65276 -3.11621 0.96123
HEad  -20.9302 -0.186654 -5.23282
LeftShoulder1  0.177533 2.95655 -26.2207
LeftArm  -1.14637 9.32592 -46.9767
LeftForeArm  24.3823 -30.274 -5.24289
LeftHand  -0.0362301 5.6127 -2.44702
RightShoulder  -0.171106 -4.03276 24.4681
RightArm  9.19819 -6.12599 42.1453
RightForeArm  1.58575 19.5599 4.41737
RightHand  -0.412126 3.6569 -5.53501
LeftUpLeg  6.40617 3.04735 14.9206
LeftLeg  15.5527 -1.12289 0.0366821
LeftFoot  -8.72171 0.468636 -16.8274
LeftToes  -2.88401e-009 5.30678e-011 -1.08654e-010
1240
root  19.6332 38.5957 15.3794 -175.258 -86.3401 172.637
RightUpLeg  -9.77209 -15.2456 -12.8343
RightLeg  13.6195 1.45582 0.748871
RightFoot  1.06169 -1.03503 9.56598
RightToes  7.56698e-010 0 -3.6325e-017
Spine  13.5897 -3.25682 3.3995
Spine1  1.79013 -2.88425 0.227235
HEad  -19.5274 -1.32707 -4.75322
LeftShoulder1  0.156773 3.02098 -26.2625
LeftArm  -1.08403 9.73605 -46.8556
LeftForeArm  24.5037 -30.0069 -5.17334
LeftHand  -0.0497789 6.10722 -2.65941
RightShoulder  -0.118274 -3.86758 24.0153
RightArm  9.30569 -4.30023 42.9571
RightForeArm  1.73321 21.1903 4.55756
RightHand  -0.483039 4.29019 -6.06966
LeftUpLeg  6.01782 7.05525 14.4823
LeftLeg  14.802 -4.23136 -0.685111
LeftFoot  -11.698 0.0277032 -13.5513
LeftToes  -2.88401e-009 5.30678e-011 -1.08654e-010
1241
root  20.1837 38.593 16.3189 -165.639 -86.7075 162.863
RightUpLeg  -8.88395 -15.6773 -14.7684
RightLeg  10.2454 1.50531 0.698579
RightFoot  4.04399 -1.37829 10.3939
RightToes  7.56698e-010 0 -3.6325e-017
Spine  13.9218 -2.95449 2.03458
Spine1  2.0877 -2.72878 -0.348088
HEad  -18.6449 -0.564095 -4.12792
LeftShoulder1  0.126266 3.11639 -26.3947
LeftArm  -0.424798 9.84532 -46.4829
LeftForeArm  23.4226 -28.4615 -4.87548
LeftHand  -0.0667965 6.71678 -2.35752
RightShoulder  -0.171497 -4.03975 24.1706
RightArm  9.01031 -2.00709 43.366
RightForeArm  4.06309 22.7728 4.67517
RightHand  -0.421106 3.36146 -5.82441
LeftUpLeg  6.07301 9.12807 12.4944
LeftLeg  13.3114 -4.97264 -0.565161
LeftFoot  -13.4453 -0.118424 -10.59
LeftToes  -2.88401e-009 5.30678e-011 -1.08654e-010
1242
root  20.7208 38.6448 17.1969 -144.823 -86.2612 142.018
RightUpLeg  -7.90651 -15.8725 -17.0785
RightLeg  6.14392 1.60948 0.142081
RightFoot  6.63056 -1.74811 11.3072
RightToes  7.56698e-010 0 -3.6325e-017
Spine  14.1763 -2.39181 -0.211385
Spine1  2.40806 -2.33687 -1.12602
HEad  -18.0462 0.207793 -3.75016
LeftShoulder1  0.0635374 3.31059 -26.6799
LeftArm  1.58721 9.15818 -45.456
LeftForeArm  20.2624 -25.4951 -4.36572
LeftHand  -0.0717114 6.72603 -2.69679
RightShoulder  -0.205617 -4.14767 24.3634
RightArm  7.29423 -0.456394 44.026
RightForeArm  6.5885 24.3576 4.8683
RightHand  -0.377793 3.05104 -5.43765
LeftUpLeg  5.29216 8.64093 9.06892
LeftLeg  12.9759 -3.59041 -0.119359
LeftFoot  -13.6012 -0.0805862 -8.18012
LeftToes  -2.88401e-009 5.30678e-011 -1.08654e-010
1243
root  21.2236 38.712 17.9999 -130.245 -85.9105 127.833
RightUpLeg  -6.79408 -15.7949 -18.5013
RightLeg  1.47675 0.865339 -1.00307
RightFoot  6.47795 -1.97778 12.8316
RightToes  7.56698e-010 0 -3.6325e-017
Spine  14.1876 -1.77504 -1.7264
Spine1  2.32783 -1.83889 -1.22006
HEad  -16.5342 -1.16846 -4.15867
LeftShoulder1  0.0539421 3.34213 -27.163
LeftArm  2.51352 8.49029 -44.1579
LeftForeArm  18.1339 -21.7841 -4.20706
LeftHand  -0.105694 7.36215 -3.55252
RightShoulder  -0.156152 -3.992 24.041
RightArm  4.71175 -0.813323 45.0522
RightForeArm  8.41441 26.1085 5.16325
RightHand  -0.403761 3.81032 -5.33496
LeftUpLeg  3.65575 9.31341 6.99274
LeftLeg  13.5415 -4.42726 -0.879079
LeftFoot  -13.4726 -0.0574244 -7.37891
LeftToes  -2.88401e-009 5.30678e-011 -1.08654e-010
